<?xml version="1.0" encoding="utf-8"?>
<!-- Generator: Adobe Illustrator 23.0.1, SVG Export Plug-In . SVG Version: 6.00 Build 0)  -->
<svg version="1.1" xmlns="http://www.w3.org/2000/svg" xmlns:xlink="http://www.w3.org/1999/xlink" x="0px" y="0px"
	 viewBox="0 0 679.57 121.05" style="enable-background:new 0 0 679.57 121.05;" xml:space="preserve">
<style type="text/css">
	.st0{fill:#0F4A81;}
	.st1{fill-rule:evenodd;clip-rule:evenodd;fill:none;stroke:#0F4A81;stroke-width:3.4778;}
	.st2{fill:#1A1A19;}
</style>
<g id="Layer_1">
	<g>
		<g>
			<path class="st0" d="M155.38,69.85c-0.19,0.88-0.35,1.69-0.42,3.12c-2.85,1.7-6.16,2.51-9.56,2.51c-8.94,0-14.14-5.86-14.14-13.8
				c0-7.44,4.62-13.6,14.76-13.6c4.66,0,7.78,1.27,9.52,2.04c-0.58,1.58-0.73,2.08-0.92,3.85h-0.39c-1.04-2.2-4.43-4.24-8.36-4.24
				c-6.09,0-10.13,4.47-10.13,11.91c0,8.01,4.97,11.99,10.44,11.99c1.73,0,5.74-0.39,8.75-3.97L155.38,69.85z"/>
			<path class="st0" d="M178.69,65.57c0,6.13-4.24,9.98-10.1,9.98c-4.08,0-9.79-1.85-9.79-9.75c0-6.01,4.01-9.75,9.79-9.75
				C175.92,56.06,178.69,60.87,178.69,65.57z M162.74,65.69c0,5.36,2.35,8.32,5.9,8.32c3.7,0,6.13-3.2,6.13-8.28
				c0-3.01-0.92-8.13-5.93-8.13C162.74,57.6,162.74,64.53,162.74,65.69z"/>
			<path class="st0" d="M183.82,46.58c0.65,0.11,1.27,0.23,2,0.23c0.69,0,1.35-0.12,2.04-0.23c-0.19,5.59-0.27,7.78-0.27,14.45
				c0,6.05,0.08,8.59,0.31,13.99c-0.58-0.15-1.04-0.27-2.08-0.27c-0.96,0-1.39,0.11-1.96,0.27c0.23-3.89,0.23-4.97,0.23-14.83
				C184.05,51.39,184.05,50.43,183.82,46.58z"/>
			<path class="st0" d="M201.7,55.98c3.62,0,5.66,2,6.28,3.58c0.04-4.35,0.04-9.25-0.15-12.98c0.54,0.11,1,0.23,1.93,0.23
				c0.93,0,1.5-0.12,2.12-0.23c-0.27,5.4-0.38,10.83-0.38,16.22c0,3.97,0.04,8.21,0.11,12.21c-0.54-0.11-0.96-0.23-1.81-0.23
				c-0.85,0-1.35,0.12-1.89,0.23c0.12-1.42,0.12-2.58,0.12-3.12c-1.27,2.35-3.85,3.66-6.55,3.66c-3.89,0-8.55-2.85-8.55-9.67
				C192.92,59.79,196.65,55.98,201.7,55.98z M206.52,71.62c0.69-0.92,1.58-2.31,1.58-6.13c0-1.54-0.12-3.12-0.85-4.51
				c-1.27-2.39-3.16-3.04-4.86-3.04c-5.51,0-5.51,6.48-5.51,7.75c0,5.82,2.77,7.94,5.28,7.94
				C204.29,73.63,205.67,72.78,206.52,71.62z"/>
			<path class="st0" d="M240.74,53.24c-0.5-1.46-1.81-3.58-5.36-3.58c-4.2,0-4.93,3.08-4.93,4.43c0,3.04,2.54,4.08,4.51,4.86
				c4.2,1.62,4.93,1.89,6.28,3.01c1.77,1.42,2.16,3.47,2.16,4.93c0,4.01-2.81,8.59-9.67,8.59c-2.54,0-5.01-0.62-7.01-2.12
				c0.58-1.97,0.65-3.12,0.69-3.63h0.5c1.12,2.31,3.39,4.01,6.44,4.01c4.04,0,5.7-2.66,5.7-5.13c0-3.12-2.2-4.28-4.78-5.32
				c-4.51-1.89-5.01-2.08-6.05-3.01c-1.31-1.08-1.93-3.01-1.93-4.78c0-4.97,4.01-7.48,8.55-7.48c3.01,0,5.63,1.16,6.55,1.77
				c-0.31,0.58-1,2.12-1.12,3.43H240.74z"/>
			<path class="st0" d="M258.78,75.59c-3.62,0-5.67-2-6.28-3.58c0,6.05-0.04,9.56,0.19,13.1c-0.58-0.15-1.08-0.23-2-0.23
				c-0.96,0-1.47,0.08-2.08,0.23c0.31-5.01,0.42-10.06,0.42-15.06c0-3.51-0.08-8.25-0.19-13.83c0.54,0.12,1.16,0.23,1.89,0.23
				c0.69,0,1.35-0.12,1.89-0.23c-0.15,2.12-0.15,2.7-0.15,3.51c0.62-1,2.27-3.7,6.55-3.7c3.85,0,8.55,2.81,8.55,9.67
				C267.57,71.78,263.83,75.59,258.78,75.59z M254,59.95c-0.77,0.96-1.58,2.35-1.58,6.17c0,3.39,0.77,4.66,1.58,5.63
				c1,1.19,2.31,1.89,4.08,1.89c5.51,0,5.51-6.51,5.51-7.75c0-5.82-2.77-7.94-5.28-7.94C256.24,57.94,254.89,58.83,254,59.95z"/>
			<path class="st0" d="M283.1,59.87c-0.5-0.27-0.96-0.5-2-0.5c-2.2,0-3.39,1.46-3.78,2.2c-0.54,1.19-0.62,2.04-0.62,6.78
				c0,0.38,0,1.7,0.04,2.5c0.15,2.7,0.15,2.97,0.19,4.16c-0.58-0.15-1.08-0.23-2.08-0.23c-0.92,0-1.35,0.08-1.92,0.23
				c0.27-2.5,0.42-3.82,0.42-9.83c0-4.35-0.15-6.47-0.31-8.98c0.58,0.15,1.12,0.23,1.97,0.23c0.85,0,1.35-0.08,1.96-0.23
				c-0.31,2.12-0.31,3.66-0.31,4.35c0.66-1.54,2.47-4.85,6.98-4.47c-0.15,0.58-0.35,1.35-0.35,2.5c0,0.23,0,0.46,0.08,1.08
				L283.1,59.87z"/>
			<path class="st0" d="M289.81,52.13c-1.12,0-2.08-0.93-2.08-2.08c0-1.19,0.96-2.12,2.08-2.12c1.16,0,2.12,0.93,2.12,2.12
				C291.93,51.2,290.96,52.13,289.81,52.13z M287.76,56.36c0.54,0.15,1,0.23,1.89,0.23c0.88,0,1.43-0.08,2-0.23
				c-0.11,2.12-0.23,3.85-0.23,10.13c0,1.77,0.04,2.43,0.27,8.52c-0.5-0.15-0.88-0.23-1.89-0.23c-1.08,0-1.43,0.08-2,0.23
				c0.15-2.93,0.27-6.78,0.27-9.79C288.07,60.84,287.92,58.37,287.76,56.36z"/>
			<path class="st0" d="M298.4,56.21c0.69,0.12,1.19,0.23,1.92,0.23s1.23-0.12,1.89-0.23c-0.04,0.58-0.15,3.12-0.19,3.66
				c1-1.81,3.12-3.78,6.78-3.78c6.32,0,6.63,4.51,6.63,6.71c0,0.38-0.16,6.9-0.16,8.21c0,0.73,0.04,3.43,0.12,4.01
				c-0.54-0.15-1-0.23-1.97-0.23c-1,0-1.46,0.08-2.04,0.23c0.35-4.12,0.35-8.36,0.35-9.05c0-3.85-0.19-7.51-4.47-7.51
				c-2.04,0-3.66,0.92-4.58,2.66c-0.7,1.35-0.7,5.7-0.7,7.51c0,3.01,0.19,4.97,0.31,6.4c-0.54-0.11-1.15-0.23-2.04-0.23
				c-0.89,0-1.47,0.12-2.04,0.23c0.19-2.35,0.39-4.82,0.39-10.59C298.59,61.88,298.48,58.91,298.4,56.21z"/>
			<path class="st0" d="M328.65,56.02c0.89,0,1.7,0.04,2.58,0.19c2.04,0.35,2.5,0.39,4.01,0.39c1.23,0,1.62,0,3.51-0.15
				c-0.04,0.31-0.12,0.65-0.12,0.96c0,0.35,0.08,0.66,0.12,1c-1-0.08-2.47-0.08-3.55-0.08c0.92,0.81,1.62,2.04,1.62,3.7
				c0,4.08-3.35,6.32-7.75,6.32c-0.42,0-2.62-0.15-2.7-0.15c-1.12,0-1.7,0.92-1.7,1.85c0,1.04,0.27,2.04,4.51,2.04
				c0.42,0,2.35-0.04,2.74-0.04c3.28,0.08,4.43,0.77,5.24,1.51c0.96,0.85,1.54,2.12,1.54,3.62c0,2.77-2.04,8.29-10.17,8.29
				c-6.21,0-8.17-3.2-8.17-5.74c0-3.55,3.43-4.74,4.24-5.05c-2.5-0.69-2.85-2.16-2.85-3.2c0-2.58,2.47-3.62,3.12-3.78
				c-2.66-1-3.74-3.04-3.74-5.39C321.14,58.21,324.53,56.02,328.65,56.02z M335.51,79.02c0-3.58-3.82-4.16-6.24-4.16
				c-0.93,0-6.01,0-6.01,4.43c0,2.85,2.46,4.58,6.09,4.58C333.35,83.88,335.51,81.6,335.51,79.02z M333.16,61.95
				c0-3.35-2.16-4.62-4.16-4.62c-3.86,0-4.2,3.62-4.2,5.09c0,3.24,1.81,4.62,4.01,4.62C332.31,67.04,333.16,64.07,333.16,61.95z"/>
			<path class="st0" d="M357.33,67.66c0,3.51,0,4.47,0.08,7.36c-0.62-0.11-1.23-0.23-2.08-0.23c-0.89,0-1.54,0.12-2.19,0.23
				c0.38-6.86,0.5-9.02,0.5-14.06c0-2.97-0.03-3.93-0.34-12.6c0.61,0.15,1.12,0.23,2.15,0.23c1.04,0,1.54-0.08,2.16-0.23
				c-0.08,1.16-0.35,6.86-0.27,11.21c2.54,0.08,5.13,0.15,7.67,0.15c3,0,4.78-0.04,7.13-0.12c0.08-5.24,0.04-5.82-0.19-11.25
				c0.62,0.15,1.16,0.23,2.16,0.23c0.96,0,1.54-0.08,2.16-0.23c-0.35,6.44-0.42,12.76-0.42,18.5c0,3.12,0.04,4.39,0.23,8.17
				c-0.73-0.11-1.35-0.23-2-0.23c-0.61,0-1.23,0.08-2.2,0.23c0.11-2.19,0.27-6.32,0.27-7.28v-5.78c-2.58-0.12-3.55-0.12-7.4-0.12
				c-3.7,0-4.47,0-7.4,0.08V67.66z"/>
			<path class="st0" d="M382.61,60.91l0.15-2.5c1.19-0.96,3.08-2.35,6.24-2.35c1.51,0,3.62,0.31,5.17,1.73
				c0.89,0.85,1.58,1.97,1.58,4.32c0,1.12-0.16,5.93-0.16,6.94c0,3.39,0,4.51,1.43,4.51c0.46,0,0.77-0.11,0.96-0.19l0.04,1.08
				c-0.85,0.43-1.69,0.85-2.77,0.85c-1.27,0-2.5-0.77-2.93-2.5c-1.2,1.23-2.81,2.7-5.82,2.7c-3.97,0-5.32-3.01-5.32-5.13
				c0-4.08,3.28-4.82,6.4-5.51l3.35-0.73c1.08-0.27,1.43-0.77,1.43-1.85c0-2.62-1.81-4.2-4.32-4.2c-3.2,0-4.05,2.04-4.39,2.85
				H382.61z M392.28,65.38c-6.63,1-7.36,2.58-7.36,4.67c0,2.5,1.93,3.24,3.28,3.24c1.97,0,4.09-1.54,4.09-3.66V65.38z"/>
			<path class="st0" d="M412.67,59.87c-0.5-0.27-0.96-0.5-2-0.5c-2.2,0-3.39,1.46-3.78,2.2c-0.54,1.19-0.62,2.04-0.62,6.78
				c0,0.38,0,1.7,0.04,2.5c0.15,2.7,0.15,2.97,0.19,4.16c-0.58-0.15-1.08-0.23-2.08-0.23c-0.93,0-1.35,0.08-1.93,0.23
				c0.27-2.5,0.42-3.82,0.42-9.83c0-4.35-0.15-6.47-0.3-8.98c0.58,0.15,1.12,0.23,1.96,0.23c0.85,0,1.35-0.08,1.97-0.23
				c-0.31,2.12-0.31,3.66-0.31,4.35c0.65-1.54,2.46-4.85,6.97-4.47c-0.15,0.58-0.34,1.35-0.34,2.5c0,0.23,0,0.46,0.07,1.08
				L412.67,59.87z"/>
			<path class="st0" d="M417.03,75.01c0.23-3.54,0.27-8.71,0.27-12.45c0-3.2,0-8.48-0.08-11.44c0-1.66-0.08-2.62-0.19-4.55
				c0.69,0.11,1.39,0.23,2.08,0.23c0.69,0,1.35-0.08,2-0.23c-0.23,4.82-0.23,5.62-0.35,12.98c0.69-1.04,2.43-3.47,6.28-3.47
				c4.47,0,8.63,3.12,8.63,9.36c0,5.78-3.46,10.13-9.29,10.13c-3.31,0-4.97-1.54-6.21-2.77c-0.81,0.58-1.69,1.69-2.04,2.19H417.03z
				 M431.78,65.61c0-6.01-3.35-7.55-5.55-7.55c-1.54,0-3.04,0.65-4.04,1.89c-0.92,1.12-1.7,2.74-1.7,6.28
				c0,4.35,1.66,7.67,5.62,7.67C430.2,73.9,431.78,69.89,431.78,65.61z"/>
			<path class="st0" d="M459.22,65.57c0,6.13-4.24,9.98-10.1,9.98c-4.08,0-9.79-1.85-9.79-9.75c0-6.01,4.01-9.75,9.79-9.75
				C456.45,56.06,459.22,60.87,459.22,65.57z M443.27,65.69c0,5.36,2.35,8.32,5.9,8.32c3.7,0,6.12-3.2,6.12-8.28
				c0-3.01-0.92-8.13-5.93-8.13C443.27,57.6,443.27,64.53,443.27,65.69z"/>
			<path class="st0" d="M474.76,59.87c-0.5-0.27-0.96-0.5-2-0.5c-2.19,0-3.39,1.46-3.78,2.2c-0.54,1.19-0.62,2.04-0.62,6.78
				c0,0.38,0,1.7,0.04,2.5c0.16,2.7,0.16,2.97,0.2,4.16c-0.58-0.15-1.08-0.23-2.08-0.23c-0.93,0-1.35,0.08-1.93,0.23
				c0.27-2.5,0.43-3.82,0.43-9.83c0-4.35-0.16-6.47-0.31-8.98c0.58,0.15,1.12,0.23,1.96,0.23c0.85,0,1.35-0.08,1.97-0.23
				c-0.31,2.12-0.31,3.66-0.31,4.35c0.66-1.54,2.47-4.85,6.98-4.47c-0.15,0.58-0.35,1.35-0.35,2.5c0,0.23,0,0.46,0.08,1.08
				L474.76,59.87z"/>
			<path class="st0" d="M496.99,72.9c1.96,0,5.2-0.15,6.97-0.46c-0.08,0.35-0.15,0.73-0.15,1.27c0,0.62,0.07,1,0.15,1.31
				c-2.51-0.08-4.12-0.23-8.32-0.23c-3.39,0-4.36,0.12-6.44,0.23c0.31-4.93,0.35-9.02,0.35-14.06c0-5.24-0.23-10.94-0.31-12.6
				c0.62,0.12,1.12,0.23,2.08,0.23c1,0,1.73-0.12,2.43-0.23c-0.35,9.87-0.35,12.49-0.35,24.47C495.26,72.9,496.03,72.9,496.99,72.9z
				"/>
			<path class="st0" d="M507.87,60.91l0.15-2.5c1.19-0.96,3.08-2.35,6.24-2.35c1.51,0,3.62,0.31,5.16,1.73
				c0.88,0.85,1.58,1.97,1.58,4.32c0,1.12-0.15,5.93-0.15,6.94c0,3.39,0,4.51,1.43,4.51c0.46,0,0.77-0.11,0.96-0.19l0.04,1.08
				c-0.85,0.43-1.7,0.85-2.78,0.85c-1.27,0-2.5-0.77-2.93-2.5c-1.2,1.23-2.81,2.7-5.82,2.7c-3.97,0-5.32-3.01-5.32-5.13
				c0-4.08,3.27-4.82,6.39-5.51l3.36-0.73c1.08-0.27,1.42-0.77,1.42-1.85c0-2.62-1.81-4.2-4.31-4.2c-3.2,0-4.05,2.04-4.39,2.85
				H507.87z M517.54,65.38c-6.63,1-7.36,2.58-7.36,4.67c0,2.5,1.93,3.24,3.28,3.24c1.97,0,4.09-1.54,4.09-3.66V65.38z"/>
			<path class="st0" d="M527.29,75.01c0.23-3.54,0.27-8.71,0.27-12.45c0-3.2,0-8.48-0.08-11.44c0-1.66-0.07-2.62-0.19-4.55
				c0.69,0.11,1.39,0.23,2.08,0.23c0.69,0,1.35-0.08,2.01-0.23c-0.23,4.82-0.23,5.62-0.35,12.98c0.69-1.04,2.43-3.47,6.28-3.47
				c4.47,0,8.63,3.12,8.63,9.36c0,5.78-3.47,10.13-9.29,10.13c-3.31,0-4.97-1.54-6.2-2.77c-0.81,0.58-1.7,1.69-2.04,2.19H527.29z
				 M542.05,65.61c0-6.01-3.35-7.55-5.55-7.55c-1.54,0-3.04,0.65-4.05,1.89c-0.93,1.12-1.69,2.74-1.69,6.28
				c0,4.35,1.65,7.67,5.62,7.67C540.47,73.9,542.05,69.89,542.05,65.61z"/>
			<path class="st0" d="M569.49,65.57c0,6.13-4.24,9.98-10.09,9.98c-4.09,0-9.79-1.85-9.79-9.75c0-6.01,4.01-9.75,9.79-9.75
				C566.71,56.06,569.49,60.87,569.49,65.57z M553.53,65.69c0,5.36,2.35,8.32,5.89,8.32c3.7,0,6.13-3.2,6.13-8.28
				c0-3.01-0.93-8.13-5.94-8.13C553.53,57.6,553.53,64.53,553.53,65.69z"/>
			<path class="st0" d="M585.02,59.87c-0.5-0.27-0.96-0.5-2-0.5c-2.2,0-3.39,1.46-3.78,2.2c-0.54,1.19-0.62,2.04-0.62,6.78
				c0,0.38,0,1.7,0.04,2.5c0.15,2.7,0.15,2.97,0.2,4.16c-0.58-0.15-1.08-0.23-2.08-0.23c-0.93,0-1.35,0.08-1.93,0.23
				c0.27-2.5,0.42-3.82,0.42-9.83c0-4.35-0.15-6.47-0.3-8.98c0.58,0.15,1.12,0.23,1.96,0.23c0.85,0,1.35-0.08,1.96-0.23
				c-0.31,2.12-0.31,3.66-0.31,4.35c0.65-1.54,2.46-4.85,6.97-4.47c-0.15,0.58-0.34,1.35-0.34,2.5c0,0.23,0,0.46,0.08,1.08
				L585.02,59.87z"/>
			<path class="st0" d="M589.22,60.91l0.16-2.5c1.2-0.96,3.08-2.35,6.24-2.35c1.5,0,3.62,0.31,5.16,1.73
				c0.89,0.85,1.58,1.97,1.58,4.32c0,1.12-0.16,5.93-0.16,6.94c0,3.39,0,4.51,1.43,4.51c0.46,0,0.77-0.11,0.96-0.19l0.04,1.08
				c-0.85,0.43-1.7,0.85-2.78,0.85c-1.27,0-2.5-0.77-2.93-2.5c-1.19,1.23-2.81,2.7-5.82,2.7c-3.96,0-5.32-3.01-5.32-5.13
				c0-4.08,3.28-4.82,6.4-5.51l3.35-0.73c1.08-0.27,1.43-0.77,1.43-1.85c0-2.62-1.81-4.2-4.31-4.2c-3.2,0-4.05,2.04-4.39,2.85
				H589.22z M598.89,65.38c-6.63,1-7.36,2.58-7.36,4.67c0,2.5,1.92,3.24,3.27,3.24c1.97,0,4.08-1.54,4.08-3.66V65.38z"/>
			<path class="st0" d="M609.57,58.41c-1.23,0-1.46,0.04-3.08,0.15c0.04-0.27,0.08-0.54,0.08-0.96c0-0.38-0.04-0.65-0.08-0.96
				c0.31,0.04,0.73,0.08,1.24,0.12c0.5,0.04,1.12,0.08,1.84,0.08c0-1.35,0-2.27-0.08-4.28c1.08-0.19,3.2-1.35,3.93-1.77
				c-0.19,3.2-0.19,3.51-0.27,6.05c1.43,0,2.85-0.08,4.16-0.19c-0.04,0.31-0.08,0.54-0.08,0.96c0,0.42,0.04,0.65,0.08,0.93
				c-0.96-0.04-2.58-0.12-4.16-0.12c-0.15,3.51-0.19,7.05-0.19,10.56c0,3.12,0.5,4.82,2.7,4.82c0.35,0,1.27-0.15,1.77-0.23
				c-0.08,0.42-0.08,0.58,0,1.08c-0.89,0.5-2.39,0.73-3.28,0.73c-2.2,0-3.47-1.19-4.12-2.31c-0.31-0.54-0.54-1.19-0.54-3.62
				c0-0.62,0-1.31,0.08-4.93V58.41z"/>
			<path class="st0" d="M640.13,65.57c0,6.13-4.24,9.98-10.09,9.98c-4.08,0-9.79-1.85-9.79-9.75c0-6.01,4.01-9.75,9.79-9.75
				C637.36,56.06,640.13,60.87,640.13,65.57z M624.17,65.69c0,5.36,2.35,8.32,5.9,8.32c3.7,0,6.13-3.2,6.13-8.28
				c0-3.01-0.93-8.13-5.94-8.13C624.17,57.6,624.17,64.53,624.17,65.69z"/>
			<path class="st0" d="M655.66,59.87c-0.5-0.27-0.97-0.5-2.01-0.5c-2.2,0-3.39,1.46-3.77,2.2c-0.54,1.19-0.62,2.04-0.62,6.78
				c0,0.38,0,1.7,0.04,2.5c0.16,2.7,0.16,2.97,0.19,4.16c-0.58-0.15-1.08-0.23-2.08-0.23c-0.93,0-1.35,0.08-1.93,0.23
				c0.27-2.5,0.43-3.82,0.43-9.83c0-4.35-0.16-6.47-0.31-8.98c0.58,0.15,1.12,0.23,1.97,0.23c0.85,0,1.35-0.08,1.97-0.23
				c-0.31,2.12-0.31,3.66-0.31,4.35c0.66-1.54,2.47-4.85,6.97-4.47c-0.15,0.58-0.35,1.35-0.35,2.5c0,0.23,0,0.46,0.08,1.08
				L655.66,59.87z"/>
			<path class="st0" d="M664.76,71.7c-1.16-2.74-2.97-7.09-4.12-9.83c-1.12-2.74-1.35-3.28-2.5-5.66c0.65,0.15,1.23,0.23,2.42,0.23
				c0.85,0,1.31,0,2.09-0.23c0.34,1.04,2.85,8.05,4.81,12.8c0.27,0.65,0.58,1.31,0.81,1.31c0.42,0,3.62-7.82,5.47-14.1
				c0.42,0.12,1,0.23,1.7,0.23c0.73,0,1.23-0.12,1.54-0.23c-0.69,1.08-1.04,1.81-4.09,8.48c-0.42,0.92-0.85,1.85-1.31,2.77
				c-2.62,5.71-5.39,11.72-7.09,17.46c-0.27-0.11-0.77-0.23-1.35-0.23c-0.5,0-1.04,0.08-1.73,0.23c1.69-3.16,3.36-6.24,4.89-9.4
				L664.76,71.7z"/>
		</g>
		<g>
			<path class="st1" d="M13.1,29.16c1.4-2.01,3.76-3.76,8.28-3.76c5.27,0,8.31-0.85,11.32-1.6c2.82-1.25,4.48-5.17,4.48-8.18
				c0.75-3.76,3.76-8.28,6.77-9.78c2.26-0.75,6.02,0.75,9.78,2.25c4.52,3.01,6.02,5.27,9.78,5.27c5.26-0.75,7.52-3.01,7.52-3.01
				s5.27-4.51,10.53-3.76c6.02,1.51,6.77,8.28,6.77,8.28s1.51,8.28,3.01,10.53c2.26,2.25,5.27,3.01,8.28,3.76
				c3.76,0.76,8.28,0.76,11.29,3.76c2.67,2.44,0.75,9.79,0,11.29c-1.51,2.25-3.76,5.26-3.76,8.28c0,2.25,2.26,6.02,4.52,8.28
				c3.76,3.01,6.67,7.5,6.02,9.78c-0.75,3.76-5.27,6.77-8.28,8.28c-3.01,2.26-6.77,3.76-8.28,5.27c-1.51,2.26-2.26,3.76-2.26,10.53
				c0.75,6.77-0.75,10.53-3.01,11.29c-3.01,1.51-9.03,0.75-12.04,0c-2.26-0.75-6.77-1.5-9.03-0.75c-1.5,0.75-4.51,3.01-6.77,6.02
				c-2.26,3.76-5.09,7.2-9.78,6.77c-4.52,0-6.77-4.52-8.28-6.02c-1.5-2.26-3.76-6.77-7.53-7.52c-3.01-0.76-6.77,0.75-9.03,0.75
				c-2.26,0.75-6.02,2.26-10.53,0c-3.76-2.26-3.01-10.53-2.26-12.79c0-2.26,0.75-7.53-0.75-9.79c-2.26-3.01-4.51-3.76-8.28-6.02
				c-3.01-1.5-7.52-5.26-7.52-8.28c0-3.01,1.51-6.02,4.51-8.28c2.26-1.5,6.02-6.02,6.77-9.03c0.75-2.26-0.75-6.77-2.26-9.03
				C11.59,39.69,11.13,32,13.1,29.16"/>
			<path class="st1" d="M26.64,14.11c1.5-0.75,4.51-1.51,9.78,0c4.51,1.51,7.52,2.26,11.29,2.26c3.01,0,5.27-3.01,6.77-6.02
				c1.5-3.01,6.02-6.77,9.03-6.77c3.01,0,6.02,3.01,9.03,6.02c3.01,3.76,3.76,6.77,7.52,8.28c4.51,0.75,8.27-0.76,8.27-0.76
				s6.02-2.25,10.54,0.76c5.27,3.01,3.76,9.78,3.76,9.78s-1.5,8.28-0.75,10.54c0.75,3.01,3.76,5.26,6.02,6.77
				c3.01,1.5,7.52,3.76,9.03,7.53c1.73,3.29-2.26,9.02-3.76,10.53c-2.26,1.5-5.27,3.76-6.02,6.02c-0.75,3,0,6.77,1.51,9.78
				c2.26,4.51,3.01,9.03,1.5,11.28c-1.5,3.01-7.52,3.77-10.53,5.27c-3.76,0.75-7.52,0.75-9.03,1.5c-2.26,1.51-3.76,3.01-6.02,9.03
				c-2.26,6.02-4.51,9.78-7.52,9.78c-2.26,0-8.28-2.26-10.54-3.77c-2.26-1.51-4.88-3.83-8.22-4.4c-2.26,0-5.32,1.39-9.09,3.65
				c-3.01,2.26-6.77,4.52-11.29,3.01c-3.76-1.5-4.52-6.77-5.27-9.03c-0.75-2.26-1.51-7.52-4.51-9.78c-3.01-2.26-6.77-2.26-9.03-2.26
				c-2.26-0.75-6.02,0-9.78-3.76c-3.01-3.01,1.5-11.29,2.26-12.8c1.51-2.26,3.76-6.77,3.01-9.78c-0.75-3.01-3.01-4.51-6.02-8.28
				c-2.26-2.26-4.51-7.52-3.76-10.53c0.75-3.01,3.76-5.27,6.77-6.02c3.01-0.75,8.28-3.76,9.78-6.02c1.51-2.26,1.51-6.77,1.51-9.03
				C22.13,23.89,23.39,15.75,26.64,14.11"/>
			<g>
				<path class="st2" d="M47.89,73.44c-0.94,0.75-4.07,2.15-7.83,2.15c-7.94,0-13.74-4.93-13.74-13.47c0-8.54,5.8-13.47,14.11-13.47
					c3.24,0,6.13,0.79,8.16,1.73c-0.38,0.68-0.64,2.14-0.79,2.93l-0.23,0.08c-1.05-1.17-3.61-3.35-7.15-3.35
					c-5.91,0-10.42,3.73-10.42,12.08c0,8.35,4.51,12.07,10.42,12.07c3.57,0,6.21-2.03,7.64-3.12l0.15,0.15L47.89,73.44z"/>
				<path class="st2" d="M52.71,70.09c0.83,1.77,2.71,3.91,5.94,3.91c3.35,0,5.38-2.44,5.38-5.45c0-6.93-11.85-3.95-11.85-12.8
					c0-4.17,3.16-7.11,8.17-7.11c2.37,0,4.06,0.57,5.57,1.77c-0.45,0.86-0.72,1.73-1.02,3.16h-0.45c-0.53-1.39-1.66-3.54-4.48-3.54
					c-2.82,0-4.85,1.92-4.85,4.67c0,7.04,11.85,4.1,11.85,12.42c0,4.59-3.42,8.47-9.22,8.47c-3.12,0-4.89-1.09-6.21-2.15
					c0.45-1.17,0.57-1.92,0.71-3.35H52.71z"/>
				<path class="st2" d="M91.16,58.88c0-3.24-0.15-6.51-0.3-9.75c0.64,0.11,1.24,0.19,1.84,0.19c0.6,0,1.21-0.08,1.84-0.19
					c-0.15,3.24-0.3,6.51-0.3,9.75v6.47c0,3.23,0.15,6.51,0.3,9.74c-0.64-0.11-1.24-0.19-1.84-0.19c-0.6,0-1.21,0.07-1.84,0.19
					c0.15-3.23,0.3-6.51,0.3-9.74v-3.39c-2.63-0.04-5.23-0.07-7.86-0.07c-2.63,0-5.23,0.04-7.86,0.07v3.39
					c0,3.23,0.15,6.51,0.3,9.74c-0.64-0.11-1.24-0.19-1.84-0.19c-0.6,0-1.2,0.07-1.84,0.19c0.15-3.23,0.3-6.51,0.3-9.74v-6.47
					c0-3.24-0.15-6.51-0.3-9.75c0.64,0.11,1.24,0.19,1.84,0.19c0.6,0,1.21-0.08,1.84-0.19c-0.15,3.24-0.3,6.51-0.3,9.75v1.31
					c2.63,0.04,5.23,0.11,7.86,0.11c2.63,0,5.23-0.07,7.86-0.11V58.88z"/>
			</g>
		</g>
		<g>
			<path d="M235.22,114.44c-0.36,0-4.86-0.15-5.81-0.15c-0.99,0-1.83,0.04-3.91,0.15c0.25-3.69,0.44-6.21,0.44-14.61
				c0-5.44-0.08-6.83-0.29-10.74c2.01,0.07,3.98,0.11,5.99,0.11c6.54,0,10.04,0,13.44,2.71c3.18,2.52,4.02,6.02,4.02,9.2
				C249.1,110.35,242.53,114.44,235.22,114.44z M241.36,92.82c-2.56-1.94-5.66-1.94-8.58-1.94c-1.75,0-2.05,0.04-3.21,0.15
				c-0.14,3.36-0.18,7.09-0.18,10.45c0,6.68,0,7.45,0.11,11.06c1.24,0.15,2.15,0.22,3.91,0.22c1.57,0,5.08,0,7.56-1.75
				c3.4-2.41,4.09-6.54,4.09-9.46C245.05,98.81,244.43,95.12,241.36,92.82z"/>
			<path d="M256.76,97.86c0.11,8.84,0.26,10.92,0.58,16.58c-0.44-0.11-0.88-0.22-1.53-0.22c-0.66,0-0.99,0.11-1.42,0.22
				c0.18-1.82,0.48-8.11,0.48-11.91c0-1.46-0.11-7.81-0.11-9.13v-4.38c0.22,0.04,0.4,0.07,0.58,0.07c0.22,0,0.44-0.04,0.77-0.07
				l1.21,1.42c0.98,1.14,1.86,2.12,4.09,4.46c7.3,7.7,8.11,8.58,12.75,13.29v-1.35c0-9.32,0-12.53-0.47-17.83
				c0.4,0.11,0.84,0.22,1.42,0.22c0.58,0,1.1-0.11,1.57-0.22c-0.62,5.26-0.62,10.56-0.62,15.82c0,2.85,0,7.23,0.15,9.82
				c-0.29-0.04-0.47-0.07-0.7-0.07c-0.18,0-0.33,0.04-0.58,0.07c-1.13-1.39-6.61-7.49-9.17-9.86c-0.62-0.59-1.24-1.2-1.86-1.83
				l-7.12-7.41V97.86z"/>
			<path d="M286.34,104.88c-0.73,1.68-2.19,4.93-3.4,9.57c-0.44-0.07-0.8-0.22-1.5-0.22c-0.69,0-1.13,0.15-1.61,0.22
				c3.25-7.08,8.66-18.99,11.25-25.56c0.29,0.04,0.51,0.11,0.91,0.11c0.33,0,0.51-0.04,0.8-0.11c2.81,7.67,10.88,25.42,10.96,25.56
				c-0.62-0.11-1.24-0.22-2.16-0.22c-0.95,0-1.64,0.11-2.34,0.22c-1.28-4.38-2.78-7.56-3.69-9.57H286.34z M290.9,93.99l-3.83,9.06
				h7.78L290.9,93.99z"/>
			<path d="M324.64,112.43c1.86,0,4.93-0.14,6.61-0.43c-0.08,0.33-0.15,0.69-0.15,1.2c0,0.59,0.07,0.95,0.15,1.24
				c-2.37-0.07-3.91-0.22-7.89-0.22c-3.22,0-4.13,0.11-6.1,0.22c0.29-4.67,0.33-8.55,0.33-13.33c0-4.97-0.22-10.37-0.29-11.94
				c0.58,0.11,1.06,0.22,1.97,0.22c0.95,0,1.64-0.11,2.3-0.22c-0.33,9.35-0.33,11.83-0.33,23.19
				C322.99,112.43,323.73,112.43,324.64,112.43z"/>
			<path d="M344.5,103.12c-0.06,0.31-0.11,0.57-0.11,0.97c0,0.31,0.08,0.57,0.11,0.88c-1.48-0.2-3.18-0.29-4.4-0.29
				c-0.77,0-1.59,0.03-2.3,0.06c-0.03,1.22-0.05,2.5-0.05,3.72c0,1.48,0.05,3.64,0.08,4.4c1.82,0,4.12,0,7.47-0.34
				c-0.06,0.31-0.11,0.57-0.11,0.97c0,0.4,0.05,0.62,0.11,0.91c-1.31-0.17-2.64-0.17-3.95-0.17c-2.19,0-4.4,0.09-6.59,0.17
				c0.17-2.13,0.31-3.98,0.31-10.17c0-2.84-0.05-6.67-0.23-9.46c1.99,0.17,3.95,0.17,5.94,0.17c1.45,0,2.87-0.03,4.32-0.17
				c-0.06,0.32-0.11,0.63-0.11,1c0,0.4,0.06,0.62,0.11,0.91c-1.05-0.2-2.04-0.37-4.52-0.37c-1.02,0-1.53,0-2.76,0.06
				c-0.06,1.11-0.06,1.59-0.06,3.27c0,1.84,0,2.19,0.03,3.69C340.04,103.35,342.28,103.38,344.5,103.12z"/>
			<path d="M351.93,106.96c-0.57,1.31-1.71,3.84-2.64,7.44c-0.34-0.06-0.62-0.17-1.16-0.17c-0.54,0-0.88,0.11-1.25,0.17
				c2.53-5.51,6.73-14.77,8.75-19.89c0.23,0.03,0.4,0.08,0.71,0.08c0.26,0,0.4-0.03,0.63-0.08c2.19,5.97,8.46,19.78,8.52,19.89
				c-0.48-0.08-0.96-0.17-1.68-0.17c-0.74,0-1.28,0.09-1.82,0.17c-0.99-3.41-2.16-5.88-2.87-7.44H351.93z M355.48,98.49l-2.98,7.05
				h6.05L355.48,98.49z"/>
			<path d="M382.98,114.4c-0.6-0.08-1.05-0.17-1.68-0.17c-0.6,0-1.25,0.09-2.05,0.17c-2.7-4.26-4.77-6.93-6.96-9.52h-0.74
				c0,2.02-0.03,4.97,0.2,9.52c-0.48-0.11-1.14-0.17-1.65-0.17c-0.77,0-1.08,0.09-1.51,0.17c0.14-3.35,0.2-6.73,0.2-10.88
				c0-2.64-0.09-5.6-0.17-8.78c1.08,0.11,1.87,0.11,2.47,0.11c0.51,0,2.84-0.03,3.3-0.03c3.38,0,4.43,0.43,5.37,1.19
				c1.08,0.88,1.45,2.05,1.45,3.41c0,4.07-3.83,4.77-5.57,5.09c1.05,1.62,6.99,9.06,7.33,9.55V114.4z M373.37,95.99
				c-0.82,0-1.42,0.09-1.79,0.14c-0.06,1.28-0.06,2.59-0.06,3.87c0,1.31,0.03,3.3,0.03,3.89c0.54,0.06,0.82,0.06,1.51,0.03
				c1.28-0.06,5.2-0.23,5.2-4.17C378.26,96.42,375.45,95.99,373.37,95.99z"/>
			<path d="M387.86,101.5c0.08,6.88,0.2,8.5,0.45,12.9c-0.34-0.08-0.68-0.17-1.19-0.17c-0.51,0-0.76,0.09-1.11,0.17
				c0.14-1.42,0.37-6.31,0.37-9.26c0-1.14-0.09-6.08-0.09-7.1v-3.41c0.17,0.03,0.31,0.06,0.46,0.06c0.17,0,0.34-0.03,0.6-0.06
				l0.93,1.11c0.77,0.88,1.45,1.65,3.19,3.47c5.68,5.99,6.31,6.67,9.92,10.34v-1.05c0-7.24,0-9.74-0.37-13.86
				c0.31,0.08,0.65,0.17,1.11,0.17c0.46,0,0.85-0.09,1.22-0.17c-0.48,4.09-0.48,8.21-0.48,12.3c0,2.22,0,5.63,0.12,7.64
				c-0.23-0.03-0.37-0.06-0.54-0.06c-0.14,0-0.26,0.03-0.46,0.06c-0.88-1.08-5.14-5.83-7.13-7.67c-0.49-0.46-0.97-0.94-1.45-1.42
				l-5.54-5.77V101.5z"/>
			<path d="M409.1,94.74c0.46,0.11,0.8,0.17,1.56,0.17c0.8,0,1.17-0.06,1.65-0.17c-0.17,3.38-0.22,6.76-0.22,10.14
				c0,5.11,0.11,7.39,0.2,9.52c-0.54-0.08-1.14-0.17-1.76-0.17c-0.62,0-1.05,0.09-1.51,0.17c0.2-3.09,0.29-4.55,0.29-10.11
				C409.3,100.2,409.3,99.94,409.1,94.74z"/>
			<path d="M419.86,101.5c0.09,6.88,0.2,8.5,0.46,12.9c-0.34-0.08-0.68-0.17-1.19-0.17c-0.51,0-0.77,0.09-1.11,0.17
				c0.14-1.42,0.37-6.31,0.37-9.26c0-1.14-0.08-6.08-0.08-7.1v-3.41c0.17,0.03,0.31,0.06,0.46,0.06c0.17,0,0.34-0.03,0.59-0.06
				l0.94,1.11c0.77,0.88,1.45,1.65,3.18,3.47c5.68,5.99,6.31,6.67,9.92,10.34v-1.05c0-7.24,0-9.74-0.37-13.86
				c0.31,0.08,0.65,0.17,1.11,0.17c0.45,0,0.86-0.09,1.22-0.17c-0.48,4.09-0.48,8.21-0.48,12.3c0,2.22,0,5.63,0.12,7.64
				c-0.23-0.03-0.38-0.06-0.54-0.06c-0.14,0-0.25,0.03-0.45,0.06c-0.88-1.08-5.14-5.83-7.13-7.67c-0.48-0.46-0.96-0.94-1.45-1.42
				l-5.54-5.77V101.5z"/>
			<path d="M456.62,99.09c-0.69-1.08-2.16-3.35-6.34-3.35c-4.15,0-7.81,2.87-7.81,8.75c0,5.97,3.95,9.01,8.12,9.01
				c0.4,0,2.64,0,4.32-1.08c0.06-4.52,0.06-5.03-0.14-6.88c0.48,0.11,0.91,0.17,1.68,0.17c0.71,0,1.08-0.08,1.51-0.17
				c-0.14,1.68-0.29,3.41-0.29,5.57c0,0.68,0,1.45,0.09,2.07c-2.64,0.91-4.74,1.59-7.9,1.59c-6.31,0-10.63-4.12-10.63-10.23
				c0-5.37,3.47-10.03,11-10.03c2.67,0,5.68,0.65,7.67,1.68c-0.62,1.33-0.85,2.36-0.96,2.9H456.62z"/>
			<path d="M494.56,109.55c-0.18,0.84-0.33,1.61-0.4,2.96c-2.7,1.61-5.84,2.38-9.06,2.38c-8.48,0-13.41-5.55-13.41-13.07
				c0-7.05,4.39-12.89,13.99-12.89c4.42,0,7.38,1.21,9.02,1.93c-0.54,1.5-0.69,1.97-0.88,3.65h-0.36c-0.99-2.08-4.2-4.02-7.93-4.02
				c-5.77,0-9.6,4.24-9.6,11.29c0,7.59,4.71,11.36,9.89,11.36c1.65,0,5.45-0.37,8.29-3.76L494.56,109.55z"/>
			<path d="M508.39,103.12c-0.06,0.31-0.12,0.57-0.12,0.97c0,0.31,0.09,0.57,0.12,0.88c-1.48-0.2-3.18-0.29-4.41-0.29
				c-0.77,0-1.59,0.03-2.3,0.06c-0.03,1.22-0.06,2.5-0.06,3.72c0,1.48,0.06,3.64,0.08,4.4c1.82,0,4.12,0,7.47-0.34
				c-0.06,0.31-0.11,0.57-0.11,0.97c0,0.4,0.05,0.62,0.11,0.91c-1.31-0.17-2.64-0.17-3.95-0.17c-2.19,0-4.41,0.09-6.59,0.17
				c0.17-2.13,0.31-3.98,0.31-10.17c0-2.84-0.06-6.67-0.23-9.46c1.99,0.17,3.95,0.17,5.94,0.17c1.45,0,2.87-0.03,4.32-0.17
				c-0.06,0.32-0.11,0.63-0.11,1c0,0.4,0.05,0.62,0.11,0.91c-1.05-0.2-2.04-0.37-4.52-0.37c-1.02,0-1.53,0-2.76,0.06
				c-0.06,1.11-0.06,1.59-0.06,3.27c0,1.84,0,2.19,0.03,3.69C503.93,103.35,506.17,103.38,508.39,103.12z"/>
			<path d="M515,101.5c0.08,6.88,0.2,8.5,0.45,12.9c-0.34-0.08-0.68-0.17-1.19-0.17c-0.51,0-0.77,0.09-1.11,0.17
				c0.14-1.42,0.37-6.31,0.37-9.26c0-1.14-0.09-6.08-0.09-7.1v-3.41c0.17,0.03,0.31,0.06,0.46,0.06c0.17,0,0.34-0.03,0.6-0.06
				l0.93,1.11c0.77,0.88,1.45,1.65,3.19,3.47c5.68,5.99,6.31,6.67,9.92,10.34v-1.05c0-7.24,0-9.74-0.37-13.86
				c0.31,0.08,0.65,0.17,1.11,0.17c0.46,0,0.85-0.09,1.22-0.17c-0.48,4.09-0.48,8.21-0.48,12.3c0,2.22,0,5.63,0.11,7.64
				c-0.22-0.03-0.37-0.06-0.54-0.06c-0.14,0-0.26,0.03-0.46,0.06c-0.88-1.08-5.14-5.83-7.13-7.67c-0.48-0.46-0.97-0.94-1.45-1.42
				L515,99.72V101.5z"/>
			<path d="M539.59,96.34c-2.98,0.03-5.06,0.14-6.3,0.4c0.05-0.32,0.11-0.57,0.11-1c0-0.46-0.05-0.71-0.11-1
				c1.76,0.17,5.39,0.17,7.64,0.17c2.78,0,5.79,0,7.61-0.17c-0.05,0.26-0.11,0.57-0.11,1c0,0.43,0.06,0.68,0.11,1
				c-0.88-0.17-2.64-0.37-6.05-0.4c-0.03,1.96-0.06,3.95-0.06,5.88c0,3.44-0.12,7.9,0.2,12.19c-0.97-0.14-1.59-0.17-1.82-0.17
				c-0.65,0-1.22,0.11-1.48,0.17c0.23-3.12,0.31-7.27,0.31-11.11C539.65,100.71,539.62,98.27,539.59,96.34z"/>
			<path d="M561.15,103.12c-0.05,0.31-0.12,0.57-0.12,0.97c0,0.31,0.09,0.57,0.12,0.88c-1.48-0.2-3.18-0.29-4.41-0.29
				c-0.76,0-1.59,0.03-2.3,0.06c-0.03,1.22-0.06,2.5-0.06,3.72c0,1.48,0.06,3.64,0.09,4.4c1.82,0,4.12,0,7.47-0.34
				c-0.06,0.31-0.12,0.57-0.12,0.97c0,0.4,0.05,0.62,0.12,0.91c-1.31-0.17-2.64-0.17-3.95-0.17c-2.19,0-4.41,0.09-6.59,0.17
				c0.17-2.13,0.31-3.98,0.31-10.17c0-2.84-0.05-6.67-0.23-9.46c1.99,0.17,3.95,0.17,5.93,0.17c1.45,0,2.87-0.03,4.32-0.17
				c-0.06,0.32-0.12,0.63-0.12,1c0,0.4,0.05,0.62,0.12,0.91c-1.05-0.2-2.05-0.37-4.52-0.37c-1.02,0-1.53,0-2.75,0.06
				c-0.06,1.11-0.06,1.59-0.06,3.27c0,1.84,0,2.19,0.03,3.69C556.69,103.35,558.94,103.38,561.15,103.12z"/>
			<path d="M580.46,114.4c-0.6-0.08-1.05-0.17-1.68-0.17c-0.6,0-1.25,0.09-2.04,0.17c-2.7-4.26-4.77-6.93-6.96-9.52h-0.74
				c0,2.02-0.03,4.97,0.2,9.52c-0.49-0.11-1.14-0.17-1.65-0.17c-0.77,0-1.08,0.09-1.51,0.17c0.14-3.35,0.2-6.73,0.2-10.88
				c0-2.64-0.08-5.6-0.17-8.78c1.08,0.11,1.88,0.11,2.47,0.11c0.51,0,2.84-0.03,3.29-0.03c3.38,0,4.43,0.43,5.37,1.19
				c1.08,0.88,1.45,2.05,1.45,3.41c0,4.07-3.84,4.77-5.57,5.09c1.05,1.62,6.99,9.06,7.33,9.55V114.4z M570.86,95.99
				c-0.82,0-1.42,0.09-1.79,0.14c-0.05,1.28-0.05,2.59-0.05,3.87c0,1.31,0.03,3.3,0.03,3.89c0.54,0.06,0.82,0.06,1.51,0.03
				c1.28-0.06,5.2-0.23,5.2-4.17C575.75,96.42,572.94,95.99,570.86,95.99z"/>
		</g>
	</g>
</g>
<g id="Isolation_Mode">
</g>
</svg>
